HIERARCHY
ROOT Hips
{
  OFFSET 267.745 86.9975 -272.335
  CHANNELS 6 Xposition Yposition Zposition Zrotation Xrotation Yrotation
  JOINT LeftUpLeg
  {
    OFFSET 8.64259 1.95398 -2.38835
    CHANNELS 3 Zrotation Xrotation Yrotation
    JOINT LeftLeg
    {
      OFFSET 43.7702 0 0
      CHANNELS 3 Zrotation Xrotation Yrotation
      JOINT LeftFoot
      {
        OFFSET 40.6238 0 0
        CHANNELS 3 Zrotation Xrotation Yrotation
        JOINT LeftToeBase
        {
          OFFSET 12.7242 0 0
          CHANNELS 3 Zrotation Xrotation Yrotation
          End Site
          {
            OFFSET 0 0 0
          }
        }
      }
    }
  }
  JOINT RightUpLeg
  {
    OFFSET -8.2249 1.95398 -2.59336
    CHANNELS 3 Zrotation Xrotation Yrotation
    JOINT RightLeg
    {
      OFFSET 43.5653 0 0
      CHANNELS 3 Zrotation Xrotation Yrotation
      JOINT RightFoot
      {
        OFFSET 40.6238 0 0
        CHANNELS 3 Zrotation Xrotation Yrotation
        JOINT RightToeBase
        {
          OFFSET 12.7242 0 0
          CHANNELS 3 Zrotation Xrotation Yrotation
          End Site
          {
            OFFSET 0 0 0
          }
        }
      }
    }
  }
  JOINT Spine
  {
    OFFSET 0.165834 0.87714 6.61349
    CHANNELS 3 Zrotation Xrotation Yrotation
    JOINT Spine1
    {
      OFFSET 7.38963 1.71661e-005 0
      CHANNELS 3 Zrotation Xrotation Yrotation
      JOINT Spine2
      {
        OFFSET 11.9445 1.14441e-005 0
        CHANNELS 3 Zrotation Xrotation Yrotation
        JOINT Spine3
        {
          OFFSET 14.7254 4.19617e-005 0
          CHANNELS 3 Zrotation Xrotation Yrotation
          JOINT Spine4
          {
            OFFSET 10.9679 0 0
            CHANNELS 3 Zrotation Xrotation Yrotation
            JOINT RightShoulder
            {
              OFFSET 2.46616 -1.6653 3.69651
              CHANNELS 3 Zrotation Xrotation Yrotation
              JOINT RightArm
              {
                OFFSET 13.0012 0 0
                CHANNELS 3 Zrotation Xrotation Yrotation
                JOINT RightForeArm
                {
                  OFFSET 28.7848 1.52588e-005 0
                  CHANNELS 3 Zrotation Xrotation Yrotation
                  JOINT RightHand
                  {
                    OFFSET 26.5688 1.52588e-005 0
                    CHANNELS 3 Zrotation Xrotation Yrotation
                    End Site
                    {
                      OFFSET 0 0 0
                    }
                  }
                }
              }
            }
            JOINT LeftShoulder
            {
              OFFSET 2.38034 -1.29275 -3.7523
              CHANNELS 3 Zrotation Xrotation Yrotation
              JOINT LeftArm
              {
                OFFSET 16.3182 6.10352e-005 0
                CHANNELS 3 Zrotation Xrotation Yrotation
                JOINT LeftForeArm
                {
                  OFFSET 27.0901 0 0
                  CHANNELS 3 Zrotation Xrotation Yrotation
                  JOINT LeftHand
                  {
                    OFFSET 24.5451 1.52588e-005 0
                    CHANNELS 3 Zrotation Xrotation Yrotation
                    End Site
                    {
                      OFFSET 0 0 0
                    }
                  }
                }
              }
            }
            JOINT Neck
            {
              OFFSET 5.0226 -0.0266342 0
              CHANNELS 3 Zrotation Xrotation Yrotation
              JOINT Head
              {
                OFFSET 6.69364 2.86102e-005 0
                CHANNELS 3 Zrotation Xrotation Yrotation
                End Site
                {
                  OFFSET 0 0 0
                }
              }
            }
          }
        }
      }
    }
  }
}
MOTION
Frames:	14
Frame Time:	0.0416667
-361.873 59.4348 3.2942 -38.4258 0.761751 84.2205 11.4159 -8.08298 -106.001 -109.528 23.1122 5.33176 129.346 4.46334 13.004 -2.34454 -4.74371 20.6873 -36.9896 -29.9892 -106.444 -77.9266 -33.4903 19.3691 59.6502 -13.2544 0.675639 53.59 15.7337 128.04 -0.854606 9.0678 -108.884 5.70289 -9.43111 -37.0499 -6.44027 -10.9447 -36.6872 -24.8952 1.28044 -38.0457 -4.88257 1.28046 -38.0457 161.074 -38.3211 9.46993 86.3258 -1.44359 -0.528614 -139.104 -50.6388 -99.6832 44.9288 7.11681 11.8252 -72.5376 36.2623 19.8902 -10.8673 31.6944 -92.2142 150.264 79.5448 -179.778 51.9588 -18.0803 -38.6638 -26.4509 -42.2696 -135.318 81.3743 40.8181 74.3698 
-363.079 59.1297 2.95333 -38.5285 1.02689 84.0054 10.9898 -8.49101 -103.406 -109.64 23.3398 3.69776 131.496 2.95899 10.397 -4.09325 -4.27464 19.2596 -37.008 -31.1381 -106.501 -81.6997 -30.8263 18.2041 61.3286 -16.3882 3.67098 52.7714 14.6584 127.747 -0.885927 9.0435 -108.881 5.74154 -9.49869 -37.0403 -6.40088 -11.0119 -36.6751 -24.858 1.21254 -38.0527 -4.84534 1.21256 -38.0527 161.118 -38.3609 9.48956 85.7833 -2.90546 -0.466128 -138.186 -51.2058 -97.6927 44.5303 6.83904 11.3319 -73.0962 35.6761 19.7001 -14.9152 31.9454 -90.1867 152.771 75.0028 -179.85 53.4792 -18.758 -38.8313 -26.387 -42.2952 -135.166 81.0575 40.5668 74.5473 
-366.484 58.2701 1.99533 -38.7778 1.79734 83.4084 9.84327 -9.6647 -94.9612 -109.757 27.0232 -1.23107 135.652 0.826453 4.3725 -8.46658 -3.10098 16.1374 -36.9999 -34.19 -106.381 -92.5657 -19.8303 14.7183 69.3216 -26.4577 17.2151 51.0845 11.8814 125.162 -0.980938 8.97275 -108.871 5.85284 -9.7028 -37.012 -6.28737 -11.2149 -36.6392 -24.751 1.0077 -38.0745 -4.73835 1.0077 -38.0746 161.22 -38.4496 9.53613 84.2869 -7.01311 -0.228193 -135.512 -52.6477 -91.7024 43.648 5.99042 9.63602 -74.618 34.0803 19.1688 -26.9024 31.7364 -84.078 160.83 63.386 -179.937 57.502 -20.4142 -38.9515 -26.2037 -42.3798 -134.763 80.1004 39.8385 75.1106 
-371.766 56.9295 0.528306 -39.0697 3.05595 82.5081 7.74511 -10.0161 -81.9618 -108.188 34.0909 -9.57817 137.809 -0.849657 -5.53336 -13.9004 -1.72887 13.1662 -36.8124 -38.524 -105.246 -106.677 -0.743347 10.1947 92.0247 -40.0896 48.966 50.7883 7.76393 114.528 -1.14302 8.85718 -108.855 6.03273 -10.0497 -36.9651 -6.10372 -11.5599 -36.5795 -24.5786 0.659904 -38.113 -4.56594 0.659885 -38.113 161.322 -38.5383 9.58359 82.0944 -13.3648 0.334642 -131.274 -54.4918 -81.45 42.9508 4.48011 6.15378 -76.8851 31.7083 18.36 -46.2365 28.3601 -74.4498 175.567 47.9973 -179.99 63.0211 -22.2602 -38.3233 -25.9293 -42.4994 -134.196 78.5059 38.6385 76.0819 
-378.666 55.2918 -1.43497 -39.2714 4.81801 81.3744 7.24374 -0.869629 -52.9432 -83.4829 47.7062 -47.0031 126.25 5.17448 -27.0223 -19.2901 -0.582192 11.1803 -35.8033 -43.3806 -102.671 -118.684 12.9396 5.69893 130.912 -49.3376 90.3839 55.6357 8.23263 91.0053 -1.37796 8.69843 -108.832 6.27674 -10.5497 -36.8969 -5.85413 -12.0572 -36.4925 -24.3464 0.158347 -38.1681 -4.33373 0.158346 -38.168 161.382 -38.6019 9.60164 79.5661 -21.5204 1.46123 -126.037 -56.3921 -66.9055 42.9919 2.12256 0.280986 -79.7183 28.7572 17.3365 -69.2769 18.8894 -64.799 -164.054 30.5281 179.973 68.7772 -23.5688 -36.7799 -25.6171 -42.5689 -133.551 76.3215 36.9239 77.4177 
-387.165 54.0479 -3.98022 -39.2017 7.13133 80.0463 -23.8364 40.102 -13.78 94.0608 -36.7195 -94.3722 61.8761 -7.89741 73.6805 -24.1887 0.182836 10.1444 -32.4218 -47.1578 -98.967 -128.11 10.0922 1.3733 173.353 -58.1687 128.138 63.69 4.54971 63.9875 -1.69446 8.5011 -108.8 6.57479 -11.2174 -36.7992 -5.5482 -12.721 -36.3697 -24.067 -0.512769 -38.2354 -4.05432 -0.512743 -38.2354 161.397 -38.6703 9.56355 77.2139 -30.9236 3.49633 -120.384 -58.4297 -48.5186 43.7756 -1.27027 -8.1223 -82.9886 25.3727 16.1664 -90.9332 3.84392 -59.7121 -142.436 9.55827 179.947 73.7038 -24.2621 -34.9922 -25.3452 -42.4395 -132.912 73.6548 34.6195 78.9827 
-396.865 53.9443 -7.05312 -38.5959 10.0683 78.4773 -33.8906 32.582 -8.5385 78.952 -31.505 -95.8915 67.1814 -12.1937 58.4731 -28.4064 0.593203 9.75934 -24.0645 -48.5278 -92.5664 -136.977 7.44028 -3.34331 -151.116 -59.186 159.986 63.4341 1.43161 45.4182 -2.10065 10.4478 -110.575 4.9701 -12.8671 -41.3068 -7.36485 -14.479 -40.8317 -23.8731 -1.57128 -43.0149 -3.8604 -1.57126 -43.0149 161.155 -39.1765 8.89118 77.7759 -40.6876 9.35582 -129.127 -70.1033 -39.5418 44.6484 -5.5693 -18.3213 -88.3012 19.9909 14.8391 -114.754 -15.2238 -56.1483 -122.288 -27.3498 179.916 77.4345 -24.4563 -33.4206 -27.2605 -38.2134 -132.429 72.9361 30.5953 78.0428 
-406.72 54.955 -10.3815 -37.0606 13.7105 76.4245 -43.1744 28.6233 -4.77618 74.0185 -30.5801 -98.4513 69.6513 -12.8875 53.2808 -31.8582 0.76698 9.70956 -15.9641 -45.3597 -86.0053 -144.443 16.0191 -6.98853 -140.856 -54.2408 164.72 52.8599 -1.49539 34.9221 2.35992 3.78175 -78.4542 10.3217 8.64043 20.5131 -1.21067 9.56633 20.1407 -25.2712 1.69093 21.9804 -5.25852 1.69093 21.9804 163.944 -34.6295 15.7235 45.4594 -51.3125 -21.9783 -79.8343 74.3863 -5.27568 44.796 -10.0466 -28.7624 -69.7478 37.9835 15.307 -42.5016 14.361 -109.078 -171.233 47.6066 179.985 80.415 -30.8327 -38.8644 55.2148 -79.2428 -62.1278 41.7698 25.1613 109.664 
-415.636 56.5118 -13.5253 -34.05 18.0748 73.3183 -51.1899 27.0358 -1.1253 69.9717 -29.012 -100.191 72.8894 -11.8462 49.5793 -34.5785 0.833688 9.76857 -16.4509 -35.4181 -83.8393 -149.541 35.0221 -8.51254 -154.857 -47.2428 140.283 34.5776 -2.4492 29.0267 2.67762 11.8632 -74.5958 0.627559 11.0154 30.549 -11.3427 12.2891 30.0999 -31.0968 1.85074 32.2456 -11.0841 1.85072 32.2455 -176.722 -47.5477 25.8695 -2.05055 -20.25 -48.3148 -71.7603 89.0187 -1.73456 44.2131 -14.2805 -38.815 -64.958 45.517 27.9133 10.4303 -20.4443 -134.089 -23.0021 63.4017 -0.0752142 76.5798 -34.9407 -46.1094 130.66 -10.0808 18.1491 12.133 -22.7372 122.047 
-423.095 57.8662 -16.0825 -28.7971 22.9286 68.1936 -59.2734 27.1951 4.63222 67.1959 -28.0003 -101.333 77.1555 -9.50314 47.5983 -36.6517 0.891858 9.80433 -24.4494 -15.5896 -81.4752 -151.806 58.1588 -10.432 177.824 -29.5952 101.533 12.6378 -1.3323 23.2137 2.76732 12.6975 -74.8866 -0.977494 10.8729 30.1194 -12.9394 12.1304 29.6743 -32.7691 1.82264 31.801 -12.7565 1.82262 31.801 -172.29 -50.7113 27.9284 -8.46468 -18.7726 -43.7775 -63.8118 80.8467 -0.178873 42.075 -17.1119 -47.1473 -63.6497 46.5491 26.6365 13.3659 -23.3833 -131.909 -24.93 50.22 -0.0564568 72.5013 -37.7489 -52.4101 132.435 -9.48314 18.4023 10.939 -29.1156 120.61 
-429.214 58.5079 -17.8708 -20.1338 27.3981 59.7238 -68.4338 27.8608 13.5877 65.5259 -27.9857 -102.226 81.9371 -6.27043 47.4073 -38.1384 1.02072 9.72685 -39.524 6.47452 -77.1806 -149.942 72.5597 -14.2586 153.545 4.83336 88.7006 -0.676212 2.24019 14.621 2.90386 13.5631 -75.1823 -2.65995 10.8159 29.699 -14.613 12.0573 29.2547 -34.5174 1.87513 31.3873 -14.5047 1.87513 31.3873 -165.78 -55.1992 31.0704 -14.3718 -16.2997 -37.7829 -57.7199 76.0873 -0.111415 39.0605 -18.6173 -53.8937 -64.1606 45.9838 26.4582 14.8233 -22.4894 -129.143 -25.8043 37.1015 -0.0461444 64.3492 -38.5369 -60.2257 134.302 -12.6544 17.3524 9.98015 -33.1602 118.416 
-433.759 57.9566 -18.746 -6.81698 29.1491 46.9711 -79.5126 28.5895 27.1383 65.0555 -29.4597 -103.032 86.6724 -1.76513 49.2221 -39.0359 1.30216 9.44512 -66.5535 34.1577 -64.2036 -147.517 73.7441 -14.6409 131.513 27.6594 74.1438 2.64799 2.86566 11.4668 3.23194 14.3256 -75.497 -4.19241 11.1586 29.2781 -16.1333 12.3835 28.8185 -36.1188 2.31408 31.0781 -16.1062 2.31408 31.0781 -156.826 -60.5298 35.9679 -21.0886 -14.6173 -30.8562 -54.8889 72.2225 -0.0834501 35.4871 -18.8684 -59.0428 -67.782 42.4813 27.8597 13.0833 -15.4556 -125.905 -25.0668 29.7501 -0.0418231 55.6413 -35.5416 -64.3678 135.32 -21.2451 14.3414 9.0092 -33.8953 115.048 
-436.767 57.3863 -18.6435 10.0191 24.0088 32.3894 -93.3979 28.9891 45.4856 67.1855 -30.7581 -102.301 90.9542 4.05074 53.7588 -39.2499 1.8283 8.84527 -103.847 41.2127 -34.5432 -141.35 69.7138 -13.9492 109.667 37.6808 78.0276 12.0264 -0.104691 17.9725 3.97983 14.5954 -76.0747 -4.80447 12.3813 28.3647 -16.7146 13.5699 27.8519 -36.8886 3.72932 30.5371 -16.8759 3.72931 30.5372 -146.178 -65.7966 42.5242 -31.5009 -17.5114 -24.7485 -54.6486 67.7502 -0.0671052 31.6145 -18.0272 -62.5492 -75.8632 33.3167 31.9969 8.1207 -2.83085 -119.285 -23.0876 28.617 -0.0384352 48.0288 -29.2867 -62.3153 132.246 -35.0143 7.57689 6.20028 -31.6642 109.379 
-437.845 57.7928 -17.4523 26.0164 9.2258 23.3294 -110.727 27.9252 68.962 74.3273 -31.0919 -98.399 92.3225 10.4385 62.8344 -38.5738 2.69013 7.78516 -136.513 32.8471 -6.05084 -129.122 67.2548 -15.8862 93.0811 36.6103 80.1487 20.3463 -2.36152 27.4238 4.95753 2.39599 -79.1238 21.0693 15.901 19.3113 9.35941 16.7186 18.613 -12.3535 9.55122 23.0257 7.65915 9.55123 23.0257 -148.326 -87.2021 28.9814 152.083 -21.4606 173.581 -17.6091 50.1224 -0.0150957 32.818 -17.0493 -58.1152 -100.244 -58.1117 68.2272 -23.069 -24.6045 -45.061 -166.058 71.6161 177.736 47.4137 -21.7361 -49.3266 -37.9895 16.6837 -84.4419 26.7854 27.1415 82.308 
